<svg width="171" height="40" viewBox="0 0 171 40" fill="none" xmlns="http://www.w3.org/2000/svg">
<g clip-path="url(#clip0_6_62)">
<path d="M14.2529 13.2443C10.9004 13.2443 8.17297 15.9718 8.17297 19.3242C8.17297 22.6765 10.9004 25.404 14.2529 25.404C17.6054 25.404 20.3328 22.6765 20.3328 19.3242C20.3328 15.9718 17.6054 13.2443 14.2529 13.2443ZM14.2529 23.2413C12.093 23.2413 10.3357 21.4841 10.3357 19.3242C10.3357 17.1644 12.093 15.4071 14.2529 15.4071C16.4129 15.4071 18.17 17.1644 18.17 19.3242C18.17 21.4841 16.4129 23.2413 14.2529 23.2413Z" fill="#CA6D00"/>
<path d="M16.452 18.8894C16.3196 18.9919 16.1537 19.0536 15.9732 19.0536C15.5403 19.0536 15.1894 18.7027 15.1894 18.2698C15.1894 17.9571 15.373 17.688 15.6379 17.5621C15.2565 17.262 14.7758 17.0824 14.2529 17.0824C13.0149 17.0824 12.0112 18.0861 12.0112 19.3242C12.0112 20.5622 13.0149 21.5659 14.2529 21.5659C15.491 21.5659 16.4946 20.5622 16.4946 19.3242C16.4946 19.1754 16.4798 19.03 16.452 18.8894Z" fill="#6500CA"/>
<path d="M10.9169 25.9175L9.93865 27.8466C9.9975 27.8765 10.0573 27.9038 10.1167 27.9324L8.22965 29.9454H0V32.1082H9.1668L12.3734 28.6876C12.548 28.7224 12.7235 28.7542 12.9005 28.7794L13.2044 26.6381C12.4056 26.5246 11.636 26.2823 10.9169 25.9175Z" fill="#CA6D00"/>
<path d="M17.3244 26.0452C16.5921 26.3805 15.8135 26.5919 15.0101 26.6735L15.2287 28.8253C16.2684 28.7195 17.2763 28.4458 18.2246 28.0117L17.3244 26.0452Z" fill="#CA6D00"/>
<path d="M10.6285 10.4859C9.66552 10.8811 8.77724 11.4292 7.98868 12.115L9.4079 13.7471C10.0182 13.2163 10.7052 12.7923 11.4497 12.4867L10.6285 10.4859Z" fill="#CA6D00"/>
<path d="M6.42876 13.8463C5.82832 14.7024 5.37585 15.6439 5.08395 16.6442L7.16017 17.2501C7.38564 16.4775 7.73542 15.7501 8.19957 15.0881L6.42876 13.8463Z" fill="#CA6D00"/>
<path d="M7.88194 23.0665L6.01819 24.1639C6.54664 25.0614 7.21459 25.8629 8.00358 26.5461L9.41953 24.9112C8.80825 24.382 8.29106 23.7613 7.88194 23.0665Z" fill="#CA6D00"/>
<path d="M6.8654 19.3242C6.8654 19.2261 6.86728 19.1272 6.87109 19.0301L4.70993 18.9455C4.70503 19.0706 4.70248 19.198 4.70248 19.3242C4.70254 20.2422 4.83284 21.1504 5.08962 22.0235L7.16462 21.4133C6.96615 20.7384 6.86546 20.0355 6.8654 19.3242Z" fill="#CA6D00"/>
<path d="M22.2773 14.1437L20.4614 15.3183C20.9002 15.9967 21.2221 16.7366 21.4183 17.5175L23.5159 16.9904C23.2618 15.9793 22.8451 15.0215 22.2773 14.1437Z" fill="#CA6D00"/>
<path d="M21.6405 19.3056V19.3242C21.6405 20.1357 21.5101 20.9328 21.2527 21.6933L23.3015 22.3865C23.6345 21.4023 23.8033 20.372 23.8033 19.3242V19.3056L21.6405 19.3056Z" fill="#CA6D00"/>
<path d="M14.2531 9.77376C14.2528 9.77376 14.2526 9.77376 14.2523 9.77376C13.793 9.77376 13.3311 9.80676 12.8795 9.87197L13.1881 12.0125C13.5378 11.9622 13.8959 11.9366 14.2523 11.9366C14.2525 11.9366 14.2527 11.9366 14.253 11.9366C14.7024 11.9366 15.1524 11.9772 15.5903 12.0572L15.9789 9.92955C15.4131 9.82619 14.8325 9.77376 14.2531 9.77376Z" fill="#CA6D00"/>
<path d="M20.4696 23.3172C20.0327 23.9958 19.4911 24.5955 18.8597 25.0998L20.2095 26.7897C21.0246 26.1387 21.7239 25.3643 22.2881 24.488L20.4696 23.3172Z" fill="#CA6D00"/>
<path d="M21.881 7.89195L18.6563 10.8493C18.5082 10.7722 18.3585 10.6976 18.2061 10.6281L17.31 12.5966C18.043 12.9303 18.714 13.38 19.3041 13.9333L20.7834 12.3555C20.6892 12.2671 20.5934 12.1809 20.496 12.0968L22.7226 10.0548H31V7.89195H21.881Z" fill="#CA6D00"/>
<path d="M31 4.68085H25.2643V6.84364H31V4.68085Z" fill="#6500CA"/>
<path d="M5.73573 33.1564H0V35.3192H5.73573V33.1564Z" fill="#6500CA"/>
<path d="M31 33.1564H25.2643V35.3192H31V33.1564Z" fill="#6500CA"/>
<path d="M31 29.9453H25.2643V32.1081H31V29.9453Z" fill="#6500CA"/>
<path d="M30.7357 26.5H25V28.6628H30.7357V26.5Z" fill="#6500CA"/>
</g>
<path d="M41.304 32V9.504H45.656V32H41.304ZM60.2248 32V23.136C60.2248 22.2187 59.9368 21.472 59.3608 20.896C58.7848 20.32 58.0381 20.032 57.1208 20.032C56.5234 20.032 55.9901 20.16 55.5208 20.416C55.0514 20.672 54.6781 21.0347 54.4008 21.504C54.1448 21.9733 54.0168 22.5173 54.0168 23.136L52.3848 22.304C52.3848 21.088 52.6408 20.032 53.1528 19.136C53.6861 18.2187 54.4114 17.504 55.3288 16.992C56.2674 16.48 57.3234 16.224 58.4968 16.224C59.6274 16.224 60.6408 16.512 61.5368 17.088C62.4328 17.6427 63.1368 18.3787 63.6488 19.296C64.1608 20.192 64.4167 21.1627 64.4167 22.208V32H60.2248ZM49.8248 32V16.544H54.0168V32H49.8248ZM74.2575 32.32C72.8495 32.32 71.5802 31.968 70.4495 31.264C69.3188 30.56 68.4335 29.6 67.7935 28.384C67.1535 27.168 66.8335 25.8027 66.8335 24.288C66.8335 22.752 67.1535 21.376 67.7935 20.16C68.4335 18.944 69.3188 17.984 70.4495 17.28C71.5802 16.576 72.8495 16.224 74.2575 16.224C75.3668 16.224 76.3588 16.448 77.2335 16.896C78.1082 17.344 78.8015 17.9733 79.3135 18.784C79.8468 19.5733 80.1348 20.4693 80.1775 21.472V27.04C80.1348 28.064 79.8468 28.9707 79.3135 29.76C78.8015 30.5493 78.1082 31.1787 77.2335 31.648C76.3588 32.096 75.3668 32.32 74.2575 32.32ZM75.0255 28.448C76.1988 28.448 77.1482 28.064 77.8735 27.296C78.5988 26.5067 78.9615 25.4933 78.9615 24.256C78.9615 23.4453 78.7908 22.7307 78.4495 22.112C78.1295 21.472 77.6708 20.9813 77.0735 20.64C76.4975 20.2773 75.8148 20.096 75.0255 20.096C74.2575 20.096 73.5748 20.2773 72.9775 20.64C72.4015 20.9813 71.9428 21.472 71.6015 22.112C71.2815 22.7307 71.1215 23.4453 71.1215 24.256C71.1215 25.088 71.2815 25.824 71.6015 26.464C71.9428 27.0827 72.4015 27.5733 72.9775 27.936C73.5748 28.2773 74.2575 28.448 75.0255 28.448ZM78.7375 32V27.84L79.4095 24.064L78.7375 20.352V16.544H82.8975V32H78.7375ZM93.07 32.32C91.662 32.32 90.3927 31.968 89.262 31.264C88.1313 30.56 87.246 29.6 86.606 28.384C85.966 27.168 85.646 25.8027 85.646 24.288C85.646 22.752 85.966 21.376 86.606 20.16C87.246 18.944 88.1313 17.984 89.262 17.28C90.3927 16.576 91.662 16.224 93.07 16.224C94.1793 16.224 95.1713 16.448 96.046 16.896C96.9207 17.344 97.614 17.9733 98.126 18.784C98.6593 19.5733 98.9473 20.4693 98.99 21.472V27.04C98.9473 28.064 98.6593 28.9707 98.126 29.76C97.614 30.5493 96.9207 31.1787 96.046 31.648C95.1713 32.096 94.1793 32.32 93.07 32.32ZM93.838 28.448C95.0113 28.448 95.9607 28.064 96.686 27.296C97.4113 26.5067 97.774 25.4933 97.774 24.256C97.774 23.4453 97.6033 22.7307 97.262 22.112C96.942 21.472 96.4833 20.9813 95.886 20.64C95.31 20.2773 94.6273 20.096 93.838 20.096C93.07 20.096 92.3873 20.2773 91.79 20.64C91.214 20.9813 90.7553 21.472 90.414 22.112C90.094 22.7307 89.934 23.4453 89.934 24.256C89.934 25.088 90.094 25.824 90.414 26.464C90.7553 27.0827 91.214 27.5733 91.79 27.936C92.3873 28.2773 93.07 28.448 93.838 28.448ZM97.55 32V27.84L98.222 24.064L97.55 20.352V16.544H101.71V32H97.55ZM105.419 32V16.544H109.611V32H105.419ZM109.611 23.456L107.979 22.368C108.171 20.4693 108.725 18.976 109.643 17.888C110.56 16.7787 111.883 16.224 113.611 16.224C114.357 16.224 115.029 16.352 115.627 16.608C116.224 16.8427 116.768 17.2373 117.259 17.792L114.635 20.8C114.4 20.544 114.112 20.352 113.771 20.224C113.451 20.096 113.077 20.032 112.651 20.032C111.755 20.032 111.019 20.32 110.443 20.896C109.888 21.4507 109.611 22.304 109.611 23.456ZM124.758 32.32C123.35 32.32 122.08 31.968 120.95 31.264C119.819 30.56 118.934 29.6 118.294 28.384C117.654 27.168 117.334 25.8027 117.334 24.288C117.334 22.752 117.654 21.376 118.294 20.16C118.934 18.944 119.819 17.984 120.95 17.28C122.08 16.576 123.35 16.224 124.758 16.224C125.867 16.224 126.859 16.448 127.734 16.896C128.608 17.344 129.302 17.9733 129.814 18.784C130.347 19.5733 130.635 20.4693 130.678 21.472V27.04C130.635 28.064 130.347 28.9707 129.814 29.76C129.302 30.5493 128.608 31.1787 127.734 31.648C126.859 32.096 125.867 32.32 124.758 32.32ZM125.526 28.448C126.699 28.448 127.648 28.064 128.374 27.296C129.099 26.5067 129.462 25.4933 129.462 24.256C129.462 23.4453 129.291 22.7307 128.95 22.112C128.63 21.472 128.171 20.9813 127.574 20.64C126.998 20.2773 126.315 20.096 125.526 20.096C124.758 20.096 124.075 20.2773 123.478 20.64C122.902 20.9813 122.443 21.472 122.102 22.112C121.782 22.7307 121.622 23.4453 121.622 24.256C121.622 25.088 121.782 25.824 122.102 26.464C122.443 27.0827 122.902 27.5733 123.478 27.936C124.075 28.2773 124.758 28.448 125.526 28.448ZM129.238 32V27.84L129.91 24.064L129.238 20.352V16.544H133.398V32H129.238ZM139.986 32.32C139.218 32.32 138.589 32.064 138.098 31.552C137.607 31.04 137.362 30.4107 137.362 29.664C137.362 28.9173 137.607 28.288 138.098 27.776C138.589 27.264 139.218 27.008 139.986 27.008C140.733 27.008 141.351 27.264 141.842 27.776C142.333 28.288 142.578 28.9173 142.578 29.664C142.578 30.4107 142.333 31.04 141.842 31.552C141.351 32.064 140.733 32.32 139.986 32.32ZM152.539 32.32C151.131 32.32 149.861 31.968 148.731 31.264C147.6 30.56 146.715 29.6 146.075 28.384C145.435 27.168 145.115 25.8027 145.115 24.288C145.115 22.752 145.435 21.376 146.075 20.16C146.715 18.944 147.6 17.984 148.731 17.28C149.861 16.576 151.131 16.224 152.539 16.224C153.648 16.224 154.64 16.448 155.515 16.896C156.389 17.344 157.083 17.9733 157.595 18.784C158.128 19.5733 158.416 20.4693 158.459 21.472V27.04C158.416 28.064 158.128 28.9707 157.595 29.76C157.083 30.5493 156.389 31.1787 155.515 31.648C154.64 32.096 153.648 32.32 152.539 32.32ZM153.307 28.448C154.48 28.448 155.429 28.064 156.155 27.296C156.88 26.5067 157.243 25.4933 157.243 24.256C157.243 23.4453 157.072 22.7307 156.731 22.112C156.411 21.472 155.952 20.9813 155.355 20.64C154.779 20.2773 154.096 20.096 153.307 20.096C152.539 20.096 151.856 20.2773 151.259 20.64C150.683 20.9813 150.224 21.472 149.883 22.112C149.563 22.7307 149.403 23.4453 149.403 24.256C149.403 25.088 149.563 25.824 149.883 26.464C150.224 27.0827 150.683 27.5733 151.259 27.936C151.856 28.2773 152.539 28.448 153.307 28.448ZM157.019 32V27.84L157.691 24.064L157.019 20.352V16.544H161.179V32H157.019ZM164.887 32V16.544H169.111V32H164.887ZM166.999 14.048C166.317 14.048 165.751 13.824 165.303 13.376C164.855 12.9067 164.631 12.3307 164.631 11.648C164.631 10.9867 164.855 10.4213 165.303 9.952C165.751 9.48267 166.317 9.248 166.999 9.248C167.703 9.248 168.269 9.48267 168.695 9.952C169.143 10.4213 169.367 10.9867 169.367 11.648C169.367 12.3307 169.143 12.9067 168.695 13.376C168.269 13.824 167.703 14.048 166.999 14.048Z" fill="white"/>
<defs>
<clipPath id="clip0_6_62">
<rect width="31" height="31" fill="white" transform="translate(0 4.5)"/>
</clipPath>
</defs>
</svg>
